Coordinates
version=1
nRows=6
nColumns=107
inDegrees=yes

Units are S.I. units (second, meters, Newtons, ...)
If the header above contains a line with 'inDegrees', this indicates whether rotational values are in degrees (yes) or radians (no).

endheader
time	sternoclavicular_r2	sternoclavicular_r3	unrotscap_r3	unrotscap_r2	acromioclavicular_r2	acromioclavicular_r3	acromioclavicular_r1	unrothum_r1	unrothum_r3	unrothum_r2	elv_angle	shoulder_elv	shoulder1_r2	shoulder_rot	elbow_flexion	pro_sup	deviation	flexion	proximal_distal_r1	proximal_distal_r3	cmc_flexion	cmc_abduction	mp_flexion	ip_flexion	mcp2_flexion	mcp2_abduction	pm2_flexion	md2_flexion	mcp3_flexion	mcp3_abduction	pm3_flexion	md3_flexion	mcp4_flexion	mcp4_abduction	pm4_flexion	md4_flexion	mcp5_flexion	mcp5_abduction	pm5_flexion	md5_flexion	bicpt_tx	bicpt_ty	bicpt_tz	bicpt2_tx	bicpt2_ty	bicpt2_tz	ptpt_tx	ptpt_ty	ptpt_tz	FCUpt_tx	FCUpt_ty	FCUpt_tz	EDCpt_tx	EDCpt_ty	EDCpt_tz	APLpt_tx	APLpt_ty	APLpt_tz	FPLpt_tx	FPLpt_ty	FPLpt_tz	FPLpt2_tx	FPLpt2_ty	FPLpt2_tz	PEC1pt2_tx	PEC1pt2_ty	PEC1pt2_tz	PEC1pt3_tx	PEC1pt3_ty	PEC1pt3_tz	PEC2pt2_tx	PEC2pt2_ty	PEC2pt2_tz	PEC2pt3_tx	PEC2pt3_ty	PEC2pt3_tz	PEC3pt2_tx	PEC3pt2_ty	PEC3pt2_tz	PEC3pt3_tx	PEC3pt3_ty	PEC3pt3_tz	DELT2pt2a_tx	DELT2pt2a_ty	DELT2pt2a_tz	DELT2pt2_tx	DELT2pt2_ty	DELT2pt2_tz	LAT1pt2_tx	LAT1pt2_ty	LAT1pt2_tz	LAT1pt3_tx	LAT1pt3_ty	LAT1pt3_tz	LAT2pt2_tx	LAT2pt2_ty	LAT2pt2_tz	LAT2pt3_tx	LAT2pt3_ty	LAT2pt3_tz	LAT3pt2_tx	LAT3pt2_ty	LAT3pt2_tz	LAT3pt3_tx	LAT3pt3_ty	LAT3pt3_tz
      1.20000000	     -0.30279491	      0.12824963	     -0.12824963	      0.30279491	     -0.06130981	      0.49548432	      0.22271679	     -0.22271679	     -0.49548432	      0.06130981	    107.77001510	     71.68938692	     -1.88094160	    -59.97730633	     30.88847789	     82.15757674	      0.33259937	      0.14347679	      0.36083900	      0.07173840	     21.82768834	     -5.63715844	    -14.11663537	    -13.69473369	      1.85214744	      8.23705332	     24.08365036	     -7.03687422	     -2.49562553	      0.25408585	     15.33448225	     14.74023096	    -14.13689370	      0.27071273	     13.90678308	     20.79112058	     -9.57409978	    -13.66152247	     20.63157711	      5.22265224	      0.00092169	     -0.03114029	     -0.00487025	      0.01462020	     -0.01859101	     -0.00172370	      0.00147948	     -0.06882530	     -0.00666823	      0.01229888	     -0.18236576	     -0.00001648	     -0.00985889	      0.00336943	     -0.00063784	     -0.00016404	     -0.00006561	     -0.00032807	     -0.00020997	     -0.00062990	     -0.00035432	      0.00000739	     -0.00028100	     -0.00033720	      0.00234982	      0.00824429	      0.00573516	     -0.00768670	      0.01855960	     -0.01760374	      0.00234982	      0.00824429	      0.00573516	      0.00051776	      0.01720547	     -0.00904084	      0.00377476	      0.00458454	      0.01552893	      0.00000000	      0.00686797	      0.00000000	     -0.00673084	     -0.03110525	     -0.00565733	      0.02615705	     -0.00185864	     -0.02592473	     -0.00083638	      0.01401927	     -0.00573516	      0.00230999	      0.02023236	     -0.01672754	     -0.00561567	      0.01214738	     -0.00513774	     -0.01170928	      0.02564889	     -0.02871561	     -0.02198476	      0.01358117	     -0.00689015	     -0.01457685	      0.02963164	     -0.03588455
      1.23333333	     -0.30338855	      0.12850107	     -0.12850107	      0.30338855	     -0.06143001	      0.49645573	      0.22315343	     -0.22315343	     -0.49645573	      0.06143001	    107.15812445	     71.82993541	     -1.87026209	    -57.77968798	     30.80918562	     80.89795791	      0.35165418	      0.16033010	      0.37602714	      0.08016505	     21.68905456	     -5.92078017	    -14.36892082	    -14.05107669	      1.76057223	      8.40566404	     25.39731882	     -6.27104683	     -1.44925270	      0.20125238	     16.73779313	     15.18359873	    -11.49028230	     -0.10444775	     14.59794949	     20.80781099	     -6.69690829	    -13.69183227	     20.84520368	      5.21627186	      0.00091907	     -0.03113120	     -0.00486878	      0.01473754	     -0.01856947	     -0.00193152	      0.00157255	     -0.06876512	     -0.00656676	      0.01215591	     -0.18240682	     -0.00004693	     -0.00970773	      0.00330205	     -0.00060044	     -0.00018557	     -0.00007423	     -0.00037113	     -0.00023752	     -0.00071257	     -0.00040082	      0.00000772	     -0.00028089	     -0.00033706	      0.00235443	      0.00826045	      0.00574640	     -0.00770177	      0.01859599	     -0.01763825	      0.00235443	      0.00826045	      0.00574640	      0.00051877	      0.01723920	     -0.00905856	      0.00378031	      0.00459353	      0.01554345	      0.00000000	      0.00689508	      0.00000000	     -0.00674404	     -0.03116624	     -0.00567986	      0.02603174	     -0.00177572	     -0.02441664	     -0.00083802	      0.01404675	     -0.00574640	      0.00231452	      0.02027202	     -0.01676033	     -0.00562668	      0.01217119	     -0.00514782	     -0.01173223	      0.02569918	     -0.02877190	     -0.02202787	      0.01360779	     -0.00690366	     -0.01460543	      0.02968973	     -0.03595490
      1.26666667	     -0.30318842	      0.12841631	     -0.12841631	      0.30318842	     -0.06138949	      0.49612825	      0.22300623	     -0.22300623	     -0.49612825	      0.06138949	    107.28231623	     71.78255351	     -1.87242965	    -58.30196187	     30.99050964	     81.69547931	      0.34731353	      0.16942027	      0.37261957	      0.08471013	     21.66807502	     -6.39996843	    -13.95194637	    -14.41515681	      0.67135173	      8.81799590	     26.31405325	     -4.47106295	     -1.24768991	      0.48249436	     16.62095298	     15.53627788	    -11.11281465	      0.08071087	     14.94513835	     21.40558364	     -5.44018210	    -13.71552056	     20.33803877	      5.20617962	      0.00092507	     -0.03115199	     -0.00487213	      0.01466366	     -0.01861872	     -0.00180019	      0.00151363	     -0.06880322	     -0.00663101	      0.01224637	     -0.18238087	     -0.00002779	     -0.00980343	      0.00334466	     -0.00062402	     -0.00019738	     -0.00007895	     -0.00039476	     -0.00025264	     -0.00075793	     -0.00042634	      0.00000777	     -0.00028087	     -0.00033704	      0.00235287	      0.00825500	      0.00574261	     -0.00769669	      0.01858372	     -0.01762662	      0.00235287	      0.00825500	      0.00574261	      0.00051843	      0.01722783	     -0.00905259	      0.00377844	      0.00459050	      0.01553856	      0.00000000	      0.00688593	      0.00000000	     -0.00673959	     -0.03114568	     -0.00567226	      0.02606735	     -0.00179544	     -0.02477430	     -0.00083746	      0.01403749	     -0.00574261	      0.00231300	      0.02025865	     -0.01674928	     -0.00562297	      0.01216317	     -0.00514442	     -0.01172449	      0.02568222	     -0.02875292	     -0.02201334	      0.01359882	     -0.00689911	     -0.01459580	      0.02967015	     -0.03593119
      1.30000000	     -0.30286311	      0.12827852	     -0.12827852	      0.30286311	     -0.06132362	      0.49559592	      0.22276695	     -0.22276695	     -0.49559592	      0.06132362	    107.48533357	     71.70553323	     -1.87597297	    -59.08253974	     31.06312812	     82.31179768	      0.33585610	      0.14468048	      0.36347760	      0.07234024	     21.66123375	     -6.39062823	    -13.90753016	    -14.34480100	      0.60507857	      9.21493732	     25.74106889	     -3.77234450	     -1.22149362	      0.64275349	     17.16288645	     15.68141476	    -10.52954493	     -0.02062200	     15.63319221	     21.48165099	     -3.86821779	    -13.74211027	     20.02645335	      5.22423312	      0.00092747	     -0.03116031	     -0.00487347	      0.01460560	     -0.01863845	     -0.00169811	      0.00146809	     -0.06883267	     -0.00668066	      0.01231641	     -0.18236070	     -0.00001267	     -0.00987739	      0.00337772	     -0.00064247	     -0.00016555	     -0.00006622	     -0.00033110	     -0.00021190	     -0.00063571	     -0.00035759	      0.00000778	     -0.00028087	     -0.00033704	      0.00235035	      0.00824614	      0.00573645	     -0.00768843	      0.01856378	     -0.01760771	      0.00235035	      0.00824614	      0.00573645	      0.00051787	      0.01720934	     -0.00904287	      0.00377540	      0.00458558	      0.01553060	      0.00000000	      0.00687108	      0.00000000	     -0.00673236	     -0.03111226	     -0.00565992	      0.02611383	     -0.00182490	     -0.02530976	     -0.00083657	      0.01402243	     -0.00573645	      0.00231051	      0.02023691	     -0.01673131	     -0.00561694	      0.01215011	     -0.00513890	     -0.01171191	      0.02565467	     -0.02872207	     -0.02198972	      0.01358423	     -0.00689170	     -0.01458014	      0.02963831	     -0.03589263
      1.33333333	     -0.30279229	      0.12824852	     -0.12824852	      0.30279229	     -0.06130928	      0.49548003	      0.22271487	     -0.22271487	     -0.49548003	      0.06130928	    107.51189251	     71.68876666	     -1.87643651	    -59.07278718	     31.06758425	     82.30826757	      0.33581336	      0.14472568	      0.36344246	      0.07236284	     21.66072616	     -6.39165401	    -13.90780197	    -14.34482581	      0.60156821	      9.21697937	     25.74010800	     -3.77269522	     -1.22119781	      0.64365410	     17.16291165	     15.68145953	    -10.52566603	     -0.02037421	     15.63513772	     21.48191199	     -3.86151623	    -13.74314468	     20.02857851	      5.22441351	      0.00092762	     -0.03116082	     -0.00487355	      0.01460592	     -0.01863966	     -0.00169869	      0.00146835	     -0.06883250	     -0.00668037	      0.01231601	     -0.18236082	     -0.00001275	     -0.00987697	      0.00337753	     -0.00064237	     -0.00016562	     -0.00006625	     -0.00033123	     -0.00021199	     -0.00063596	     -0.00035773	      0.00000779	     -0.00028086	     -0.00033703	      0.00234980	      0.00824422	      0.00573511	     -0.00768664	      0.01855944	     -0.01760359	      0.00234980	      0.00824422	      0.00573511	      0.00051775	      0.01720532	     -0.00904076	      0.00377474	      0.00458450	      0.01552886	      0.00000000	      0.00686785	      0.00000000	     -0.00673078	     -0.03110499	     -0.00565723	      0.02611329	     -0.00182453	     -0.02530307	     -0.00083637	      0.01401915	     -0.00573511	      0.00230997	      0.02023218	     -0.01672739	     -0.00561562	      0.01214727	     -0.00513770	     -0.01170918	      0.02564867	     -0.02871536	     -0.02198457	      0.01358105	     -0.00689009	     -0.01457673	      0.02963138	     -0.03588424
      1.36666667	     -0.30301795	      0.12834410	     -0.12834410	      0.30301795	     -0.06135497	      0.49584929	      0.22288085	     -0.22288085	     -0.49584929	      0.06135497	    107.24266032	     71.74219324	     -1.87173752	    -58.22274618	     31.11098142	     82.15468529	      0.34249964	      0.15590076	      0.36880539	      0.07795038	     21.94585961	     -6.91545384	    -14.54575346	    -13.38953416	     -0.20389664	     10.11169112	     25.77389798	     -2.80288883	     -1.22801738	      0.95544020	     17.60801410	     15.67782862	     -9.69675340	      0.07436848	     16.32922823	     20.86965241	     -0.77809135	    -13.81366955	     17.55970015	      5.24554276	      0.00092905	     -0.03116579	     -0.00487436	      0.01462050	     -0.01865145	     -0.00172419	      0.00147970	     -0.06882516	     -0.00666800	      0.01229854	     -0.18236586	     -0.00001656	     -0.00985854	      0.00336928	     -0.00063775	     -0.00017986	     -0.00007194	     -0.00035971	     -0.00023022	     -0.00069065	     -0.00038849	      0.00000711	     -0.00028108	     -0.00033730	      0.00235155	      0.00825036	      0.00573938	     -0.00769236	      0.01857327	     -0.01761671	      0.00235155	      0.00825036	      0.00573938	      0.00051814	      0.01721814	     -0.00904750	      0.00377685	      0.00458792	      0.01553439	      0.00000000	      0.00687815	      0.00000000	     -0.00673580	     -0.03112817	     -0.00566579	      0.02606221	     -0.00179245	     -0.02472001	     -0.00083699	      0.01402960	     -0.00573938	      0.00231169	      0.02024726	     -0.01673986	     -0.00561981	      0.01215633	     -0.00514153	     -0.01171790	      0.02566778	     -0.02873676	     -0.02200096	      0.01359117	     -0.00689523	     -0.01458759	      0.02965346	     -0.03591098
